# xmcd
#
# Track frame offsets:
#	150
#	23827
#	73570
#	98437
#
# Disc length: 1531 seconds
#
# Revision: 5
# Processed by: cddbd v1.5.2PL0 Copyright (c) Steve Scherf et al.
# Submitted via: audiograbber 1.83.01
#
DISCID=2505f904
DTITLE=And One - Techno Man
DYEAR=1991
DGENRE=Synthpop
TTITLE0=Techno man (Club Mix)
TTITLE1=Second voice (Teuer Mix)
TTITLE2=Techno man (Hunka Mix)
TTITLE3=Techno man (LP edit)
EXTD=
EXTT0=
EXTT1=
EXTT2=
EXTT3=
PLAYORDER=
